<?xml version="1.0" encoding="UTF-8"?>
<svg id="Calque_3" data-name="Calque 3" xmlns="http://www.w3.org/2000/svg" viewBox="0 0 267.75 420.28">
  <defs>
    
  </defs>
  <g id="Calque_10" data-name="Calque 10">
    <g>
      <path class="cls-3" d="M.16,186.33c-1.33,29.54,5.72,45.85,15.57,63.88,0,0,42.31,84.01,56.07,105.93s28.47,45.34,28.47,45.34c0,0,11.23,17.43,29.59,18.76s35.1-28.08,35.1-28.08l69.38-106.29s19.45-23.3,27.7-57.9,6.61-68.61-20.53-110.13c-27.91-42.68-77.05-54.77-110.61-54.83-25.56-.05-64.5,5.32-94.04,38.86S1.49,156.79.16,186.33Z"></path>
      <path class="cls-1" d="M29.99,174.83l1,5.31c.21,1.13,1.39,1.81,2.48,1.42l61.54-21.92c1.11-.4,1.59-1.7.99-2.72h0c-.43-.73-1.29-1.09-2.11-.87l-62.54,16.62c-.95.25-1.55,1.2-1.36,2.16Z"></path>
      <path class="cls-1" d="M89.08,153.11l-54.66,11.1c-1.61.33-3.03-1.11-2.68-2.72l14.17-65.29c.41-1.91,2.89-2.45,4.06-.88l40.5,54.19c1,1.34.27,3.27-1.37,3.6Z"></path>
      <path class="cls-1" d="M36.2,99.24c1.1-.96,2.78.06,2.45,1.48-3.38,14.36-14.69,61.82-17.39,64.19s-14.99,3.53-19.47,3.92c-.91.08-1.67-.67-1.63-1.58.21-4.02,1.94-15.36,13.11-36.47,9.76-18.44,18.38-27.57,22.93-31.53Z"></path>
      <path class="cls-1" d="M119.44,142.5l-15.42,6.29c-1.5.41-3.1-.15-4.02-1.41l-43.69-59.54c-1.32-1.79-.81-4.33,1.11-5.47,9.63-5.7,38.06-20.61,72.59-20.91,42.72-.37,77.59,19.67,94.36,34.14,7.62,6.57,11.62,10.86,13.72,13.58,1.53,1.99.71,4.89-1.63,5.8l-5.98,2.33c-1.66.65-3.54.05-4.51-1.44-3.92-5.99-15.03-20.8-32.35-27.1-21.96-7.98-54.55,1.02-66.22,26.28-5.11,11.05-5.55,17.42-5.41,22.2.05,1.74-.86,4.79-2.54,5.24Z"></path>
      <path class="cls-1" d="M219.39,180.49c-.97-1.15-1.02-2.81-.13-4.02,2.4-3.31,7.09-10.56,10.42-20.74,4.66-14.24-.4-27.15.93-28.75,1.33-1.6,11.05-7.59,14.9-5.19,3.86,2.4,19.12,27.95,21.67,52.3,1.84,17.6-1.27,40.06-3.14,51.16-.46,2.74-3.92,3.68-5.71,1.55l-38.95-46.32Z"></path>
      <path class="cls-1" d="M163.44,192.91c-1.49-.34-3.21.13-3.94,1.47-2.8,5.09-12.29,12.45-18.86,16.35-3.56,2.11-12.33,5.5-19.87,6.12-3.35.28-5.04,3.74-2.16,5.47l42.85,25.73c.72.43,1.56.62,2.4.53,3.4-.37,13.23-1.07,23.77,1.62,9.28,2.37,20.22,7.36,25.16,9.74,1.58.76,3.47.36,4.61-.97l23.16-26.91c1.19-1.38,1.26-3.39.17-4.85l-28.7-38.42c-1.14-1.52-3.2-2-4.88-1.13-4.34,2.27-13.23,6.17-23.64,6.64s-16.68-.64-20.06-1.41Z"></path>
      <path class="cls-1" d="M248.7,239.02l6.6,11.72c.38.68.43,1.49.12,2.2-1.41,3.28-5.71,12.93-9.78,19.02-2.54,3.8-5.05,7.49-6.9,10.19-1.14,1.66-3.68,1.35-4.37-.55-.9-2.46-2.2-5.3-3.88-7.04-2.29-2.38-5.62-5.64-7.61-7.58-.95-.92-1-2.42-.13-3.41l21.93-24.96c1.13-1.29,3.19-1.07,4.03.42Z"></path>
      <path class="cls-1" d="M148.33,245.81c1.74,1.08,1.16,3.74-.87,4-9.17,1.18-26.51,4.14-38.62,10.68-11.43,6.18-23.87,10.6-30.9,12.87-1.94.63-3.6-1.52-2.5-3.24l30.78-47.92c.64-1,1.97-1.3,2.97-.67l39.13,24.29Z"></path>
      <path class="cls-1" d="M65.77,261.13l-7.85-25.78c-.34-1.11.17-2.31,1.22-2.82,3.13-1.53,10.04-4.66,18.3-6.8,6.02-1.56,11.37-2.4,15.05-2.85,2.04-.25,3.41,2.04,2.23,3.72l-24.73,35.21c-1.14,1.62-3.64,1.22-4.21-.67Z"></path>
      <path class="cls-1" d="M51.18,240.32l9.41,32.09c.42,1.45-.37,2.96-1.79,3.46-3.01,1.06-8.35,2.31-13.7.56-8.12-2.66-9.18-10.38-9.18-14.9s1.57-12.21,4.66-16.37c1.76-2.37,4.17-4.59,6.11-6.21,1.55-1.29,3.92-.56,4.49,1.38Z"></path>
      <path class="cls-1" d="M122.64,326.83c-1.49-1.38-1.15-3.82.67-4.73,6.51-3.27,20.4-9.55,31.31-9.74,14.77-.27,19.96,1.33,22.36,3.99s7.72,12.91-2.26,26.88c-6.92,9.69-12.56,13.55-15.37,15.01-1.09.57-2.41.38-3.31-.45l-33.4-30.96Z"></path>
      <path class="cls-1" d="M146.24,358.41l-31.79-29.64c-.9-.84-2.2-1.1-3.35-.65-5.16,1.98-19.88,7.49-29.41,9.66-6.31,1.43-11.91,2.25-15.74,2.7-2.38.28-3.64,2.96-2.33,4.97l19.31,29.45c.61.94,1.66,1.49,2.78,1.46,5.68-.17,23.57-.99,35.63-4.64,9.24-2.8,18.37-5.97,23.78-7.91,2.27-.81,2.87-3.74,1.1-5.39Z"></path>
      <path class="cls-2" d="M87.55,382.8s17.46,2.21,45.86-5.17c28.4-7.39,71.82-43.77,51.57-64.57-20.25-20.8-57.62-.37-71.67,6.72-12.17,6.14-45.81,11.45-54.58,12.76-1.27.19-2.52-.44-3.11-1.58-2.19-4.19-8.86-17.09-28.01-54.8C1.53,224.79,2.29,223.78,2.29,223.78c0,0-2.7-12.25,14.86-24.52,17.56-12.27,56.75-25.31,75.55-34.16,18.8-8.85,30.01-13.91,30.01-13.91,0,0,2.46,11.28,12.06,21.3,9.61,10.02,21.23,17.62,21.23,17.62,0,0-18.65,20.25-43.17,23.63-42.85,5.89-86.23,14.58-82.78,54.03,1.85,21.13,30.87,16.07,55.36,9.32,24.03-6.62,62.2-32.52,106.29-19.59,44.09,12.93,42.04,33.83,42.04,33.83l-75.83,114.33c-4.15,6.38-10.38,11.23-17.7,13.34-.37.11-.74.21-1.12.3-5.16,1.31-10.56,1.25-15.76.12-4.3-.93-9.7-2.71-13.39-6.11-7.03-6.48-22.4-30.51-22.4-30.51Z"></path>
      <circle class="cls-4" cx="177.93" cy="139.89" r="43.25"></circle>
      <path class="cls-4" d="M79.14,14.73l2.5,7.71c.81,2.49,3.13,4.18,5.76,4.18h8.11c1.99,0,2.82,2.55,1.21,3.72l-6.56,4.76c-2.12,1.54-3.01,4.27-2.2,6.77l2.5,7.71c.62,1.89-1.55,3.47-3.16,2.3l-6.56-4.76c-2.12-1.54-4.99-1.54-7.12,0l-6.56,4.76c-1.61,1.17-3.78-.4-3.16-2.3l2.5-7.71c.81-2.49-.08-5.23-2.2-6.77l-6.56-4.76c-1.61-1.17-.78-3.72,1.21-3.72h8.11c2.62,0,4.95-1.69,5.76-4.18l2.5-7.71c.62-1.89,3.29-1.89,3.91,0Z"></path>
      <path class="cls-4" d="M135.84,1.42l2.5,7.71c.81,2.49,3.13,4.18,5.76,4.18h8.11c1.99,0,2.82,2.55,1.21,3.72l-6.56,4.76c-2.12,1.54-3.01,4.27-2.2,6.77l2.5,7.71c.62,1.89-1.55,3.47-3.16,2.3l-6.56-4.76c-2.12-1.54-4.99-1.54-7.12,0l-6.56,4.76c-1.61,1.17-3.78-.4-3.16-2.3l2.5-7.71c.81-2.49-.08-5.23-2.2-6.77l-6.56-4.76c-1.61-1.17-.78-3.72,1.21-3.72h8.11c2.62,0,4.95-1.69,5.76-4.18l2.5-7.71c.62-1.89,3.29-1.89,3.91,0Z"></path>
      <path class="cls-4" d="M194.12,14.73l2.5,7.71c.81,2.49,3.13,4.18,5.76,4.18h8.11c1.99,0,2.82,2.55,1.21,3.72l-6.56,4.76c-2.12,1.54-3.01,4.27-2.2,6.77l2.5,7.71c.62,1.89-1.55,3.47-3.16,2.3l-6.56-4.76c-2.12-1.54-4.99-1.54-7.12,0l-6.56,4.76c-1.61,1.17-3.78-.4-3.16-2.3l2.5-7.71c.81-2.49-.08-5.23-2.2-6.77l-6.56-4.76c-1.61-1.17-.78-3.72,1.21-3.72h8.11c2.62,0,4.95-1.69,5.76-4.18l2.5-7.71c.62-1.89,3.29-1.89,3.91,0Z"></path>
    </g>
  </g>
</svg>